# xmcd
#
# Track frame offsets:
#	150
#	15942
#	36265
#	55935
#	78592
#	99005
#	119425
#	135582
#	157372
#	178227
#	195662
#	215117
#
# Disc length: 3187 seconds
#
# Revision: 1
# Processed by: cddbd v1.4PL0 Copyright (c) Steve Scherf et al.
# Submitted via: EasyCDDAExtractor 5.0.6
#
DISCID=a60c710c
DTITLE=최재훈 - 4집 Believe In 5462
DYEAR=1999
DGENRE=Blues
TTITLE0=Believe In ...
TTITLE1=비(悲)의 Rhapsody
TTITLE2=이별한 사람만이 아는 진실
TTITLE3=축복
TTITLE4=Blue Romance
TTITLE5=요즘 난
TTITLE6=백마
TTITLE7=슬픈운명(드라마 '안녕 내사랑' 삽입곡)
TTITLE8=부탁할께요
TTITLE9=사이비 유감
TTITLE10=안녕
TTITLE11=별리
EXTD=
EXTT0=
EXTT1=
EXTT2=
EXTT3=
EXTT4=
EXTT5=
EXTT6=
EXTT7=
EXTT8=
EXTT9=
EXTT10=
EXTT11=
PLAYORDER=
